<svg width="598" height="207" viewBox="0 0 598 207" fill="none" xmlns="http://www.w3.org/2000/svg">
<g clip-path="url(#clip0_20_377)">
<path d="M48.8795 47.7565C49.4513 47.6219 51.3193 47.5618 52.0012 47.524L52.0101 47.8573L52.0272 47.7973C39.7287 52.2378 32.1797 58.0251 24.7995 68.9775C11.3641 88.9152 9.81199 120.518 31.5397 135.433C44.0989 144.055 60.3441 139.865 68.3984 127.219C79.5289 109.742 78.3383 82.5951 59.9699 70.3554C71.9199 68.9022 78.8426 73.4044 85.1943 83.2904C87.7568 87.9783 88.8666 91.5408 89.5266 96.8401C91.3828 111.017 87.4472 125.343 78.609 136.582C63.7854 155.606 38.481 158.891 19.6117 143.742C-3.01336 125.578 -5.61893 90.8274 12.0627 68.3917C21.0474 56.8271 34.3255 49.385 48.8795 47.7565Z" fill="#FEFEFE"/>
<path d="M61.3525 51.4604C71.2093 50.2887 82.3294 54.1405 89.8846 60.0991C124.384 87.3072 112.254 143.231 70.3108 155.181C65.4616 156.563 61.0951 157.074 56.2329 157.705C59.3276 156.416 62.4756 155.558 65.5984 154.039C86.9587 143.651 98.6706 117.498 94.814 94.5124C94.3905 91.9888 93.518 89.202 92.7331 86.7258C90.3963 80.465 85.9531 73.3789 80.4075 69.8627C51.9529 51.8364 30.2993 84.5048 35.5872 110.51C37.8052 121.417 41.2292 127.658 50.7137 134.22C44.055 134.715 38.1323 134.083 32.8177 129.736C14.6922 114.91 18.6319 85.4692 31.5715 68.7181C39.4638 58.501 49.0985 53.0904 61.3525 51.4604Z" fill="#FEFEFE"/>
<path d="M189.886 86.6519C193.412 86.3001 198.859 85.7839 201.511 88.2144C202.649 89.2575 203.925 90.3005 205.367 90.7966C206.132 90.1062 205.086 88.6868 206.027 87.3501C208.318 86.9219 212.865 87.1618 215.387 87.223L215.302 125.101L205.649 125.058C205.674 123.776 205.771 122.523 205.456 121.282L205.008 121.366C194.615 131.127 180.092 124.933 176.356 112.277C173.015 100.955 178.542 90.0476 189.886 86.6519Z" fill="#FEFEFE"/>
<path d="M192.095 96.2829C195.673 95.0734 199.626 95.8946 202.427 98.4286C205.228 100.963 206.439 104.814 205.593 108.495C204.747 112.176 201.976 115.112 198.35 116.169C192.904 117.756 187.189 114.699 185.487 109.288C183.785 103.877 186.721 98.0986 192.095 96.2829Z" fill="#030408"/>
<path d="M147.483 86.7084C158.319 84.3053 169.035 91.2031 171.334 102.061C173.634 112.92 166.633 123.569 155.753 125.764C145.019 127.929 134.545 121.044 132.277 110.331C130.009 99.6193 136.793 89.0792 147.483 86.7084Z" fill="#FEFEFE"/>
<path d="M149.186 96.1843C152.793 95.2477 156.623 96.34 159.194 99.0375C161.765 101.735 162.671 105.614 161.563 109.172C160.453 112.729 157.503 115.406 153.855 116.165C148.402 117.299 143.039 113.877 141.771 108.453C140.504 103.029 143.794 97.584 149.186 96.1843Z" fill="#030408"/>
<path d="M505.715 86.7247C516.494 84.2993 527.192 91.0992 529.572 101.89C531.953 112.68 525.104 123.348 514.307 125.682C503.568 128.001 492.979 121.206 490.613 110.48C488.247 99.7549 494.999 89.1355 505.715 86.7247Z" fill="#FEFEFE"/>
<path d="M507.386 96.2472C510.964 95.2687 514.787 96.298 517.39 98.9388C519.993 101.58 520.964 105.42 519.933 108.981C518.899 112.541 516.025 115.267 512.414 116.107C506.978 117.373 501.531 114.055 500.159 108.644C498.791 103.233 502.002 97.7207 507.386 96.2472Z" fill="#030408"/>
<path d="M456.173 87.0944L465.458 87.1396C467.642 93.4078 470.897 104.744 472.384 111.224C473.927 103.52 477.457 94.5506 478.677 87.2104C482.244 87.1114 485.655 87.1685 489.222 87.2319C485.8 99.8996 481.335 112.504 477.635 125.11L468.009 125.107C465.996 119.204 464.075 112.611 462.202 106.625C461.527 105.082 461.212 103.568 460.816 101.934C458.758 108.18 455.228 118.928 453.867 125.081L444.211 125.103C442.142 119.34 440.177 112.354 438.193 106.389C436.443 101.132 433.395 92.3514 432.279 87.2256C435.739 87.1255 439.417 87.167 442.895 87.1466C444.827 94.6588 447.638 103.397 449.187 110.677C450.081 106.077 454.542 91.6669 456.173 87.0944Z" fill="#FEFEFE"/>
<path d="M384.724 86.3209C398.414 86.8541 403.749 97.3671 402.975 109.904L374.779 109.848C375.395 111.4 375.951 112.61 377.093 113.865C378.984 115.982 381.654 117.243 384.49 117.36C388.603 117.535 390.998 115.8 393.853 113.197L398.992 116.421L401.629 118.212C395.047 125.899 385.354 128.609 375.981 124.253C362.451 117.967 360.6 96.8925 373.704 89.133C377.557 86.8497 380.419 86.5471 384.724 86.3209Z" fill="#FEFEFE"/>
<path d="M381.851 95.1457C388.621 94.4486 391.017 96.4279 393.319 102.472L387.075 102.519L374.564 102.511C374.716 102.151 374.88 101.795 375.05 101.444C376.849 97.6971 377.942 96.5095 381.851 95.1457Z" fill="#030408"/>
<path d="M562.449 72.2061L572.379 72.2302C572.32 82.7487 572.357 93.2676 572.487 103.785C576.458 99.5066 581.72 92.0555 585.98 87.0703L597.33 87.2152L582.665 105.813C585.761 109.285 588.939 113.713 591.772 117.475C593.807 120.018 595.821 122.578 597.812 125.156L586.147 125.08C581.823 119.468 576.94 113.019 572.394 107.674L572.346 125.101L562.424 125.096C562.123 107.836 562.442 89.5334 562.449 72.2061Z" fill="#FEFEFE"/>
<path d="M344.364 86.2978C344.549 86.296 344.731 86.2949 344.913 86.2952C357.649 86.3256 360.1 96.36 359.859 106.992C359.722 112.924 359.848 119.161 359.83 125.124L349.496 125.099C349.47 118.021 349.67 110.93 349.57 103.85C349.462 95.9391 344.423 93.4778 337.489 96.5873C333.703 100.551 334.082 103.671 334.097 108.942C334.111 114.326 334.156 119.724 334.145 125.109L324.185 125.097C323.929 112.76 324.156 99.5895 324.182 87.187C327.419 87.0991 330.952 87.2029 334.211 87.2389C334.245 88.5144 334.111 90.0146 334.033 91.3042C337.512 87.6724 339.473 86.841 344.364 86.2978Z" fill="#FEFEFE"/>
<path d="M286.027 86.3261C293.406 86.1407 297.555 88.1867 301.497 94.3952C298.823 95.7894 296.146 97.2496 293.484 98.6767C290.888 95.251 284.217 92.3696 282.8 97.6808C282.96 98.4387 283.13 99.4116 283.946 99.8418C288.37 102.308 300.503 104.184 301.971 110.393C304.663 121.787 294.481 125.889 286.184 126.194C279.069 125.496 274.484 123.383 271.318 116.765C274.033 115.216 276.768 113.586 279.607 112.285C281.966 116.736 286.532 119.117 291.534 115.943C291.875 115.726 292.223 114.649 292.064 114.241C289.772 108.372 280.251 109.913 275.946 105.708C274.196 104.267 273.014 102.349 272.881 99.9749C272.381 91.0485 277.947 87.0903 286.027 86.3261Z" fill="#FEFEFE"/>
<path d="M235.158 86.3328C242.323 86.2682 246.815 87.9613 250.135 94.5357C247.607 95.6867 245.151 97.2117 242.753 98.6274C240.122 95.8012 236.577 93.2465 232.579 95.918C231.718 96.4935 231.735 97.0682 231.661 97.9748C234.305 104.111 251.154 100.908 250.854 113.436C250.608 123.676 243.267 126.047 234.519 126.156C227.698 125.519 223.162 122.982 220.049 116.794C222.746 115.465 225.651 113.821 228.319 112.38C230.692 116.7 239.711 120.645 241.032 114.076C241.189 111.924 234.882 109.849 233.583 109.594C216.431 106.23 218.074 87.5927 235.158 86.3328Z" fill="#FEFEFE"/>
<path d="M420.294 76.6102C421.058 77.5865 420.735 85.3171 420.717 87.1058L429.516 87.1599L429.553 96.179L420.746 96.1761C420.687 100.467 419.927 111.874 421.818 115.148C423.535 116.756 427.205 116.328 429.608 116.298C429.59 119.21 429.556 122.122 429.508 125.034C427.254 125.409 425.355 125.394 423.09 125.427C410.549 124.242 410.746 117.706 410.957 106.919C411.024 103.443 410.98 99.7216 410.991 96.2257L404.806 96.1787L404.791 87.0795L411.072 87.0265L411.031 79.3281C413.72 78.7363 417.572 77.4427 420.294 76.6102Z" fill="#FEFEFE"/>
<path d="M554.934 86.6416C555.883 86.5882 556.057 86.5638 556.962 86.8489C558.082 88.5104 557.522 94.8939 557.503 97.3497C557.292 97.3441 557.08 97.34 556.869 97.337C541.948 97.1491 545.63 114.367 545.638 125.111C542.352 125.023 539.616 125.675 536.501 124.851C535.626 123.933 535.886 124.123 535.797 122.607L535.841 87.1533C538.952 87.0502 542.493 87.1793 545.638 87.2282C545.63 89.4441 545.571 91.7174 545.541 93.9373C545.99 93.2194 546.457 92.5105 546.935 91.8112C549.372 88.2801 550.855 87.3869 554.934 86.6416Z" fill="#FEFEFE"/>
<path d="M256.326 87.2382L266.336 87.2074C266.408 99.825 266.411 112.443 266.346 125.06L256.368 125.036L256.326 87.2382Z" fill="#FEFEFE"/>
<path d="M259.819 70.8033C261.998 70.2868 264.287 70.9816 265.811 72.6224C267.334 74.2631 267.859 76.5965 267.183 78.7315C266.508 80.8665 264.736 82.4731 262.546 82.9385C259.214 83.6463 255.933 81.5417 255.186 78.2183C254.439 74.8949 256.505 71.589 259.819 70.8033Z" fill="#FEFEFE"/>
</g>
<defs>
<clipPath id="clip0_20_377">
<rect width="598" height="207" fill="white"/>
</clipPath>
</defs>
</svg>
