<svg width="180" height="63" viewBox="0 0 180 63" fill="none" xmlns="http://www.w3.org/2000/svg">
<g clip-path="url(#clip0_262_7)">
<path d="M26.1707 18.2282C26.3167 18.3186 26.7153 18.6923 26.864 18.8255L26.797 18.8962L26.8129 18.8873C23.3529 17.263 20.5962 16.8989 16.8067 17.6373C9.90837 18.9814 3.055 25.193 4.46323 32.7673C5.27713 37.1454 9.50117 39.6373 13.7802 38.6881C19.6933 37.3764 25.0587 31.5188 23.7918 25.192C26.5623 27.3617 27.0627 29.7233 26.3321 33.0797C25.8928 34.5784 25.3858 35.5442 24.4268 36.776C21.8802 40.09 18.1053 42.2379 13.9552 42.7342C6.95882 43.6024 1.04929 39.0508 0.280281 32.0191C-0.641867 23.5878 6.00263 15.8661 14.2951 14.8834C18.5427 14.3502 22.8257 15.5565 26.1707 18.2282Z" fill="#FEFEFE"/>
<path d="M27.9821 21.5699C30.2618 23.3651 31.7642 26.4599 32.0942 29.2533C33.6013 42.0084 19.5344 51.0609 8.39429 44.8612C7.10628 44.1445 6.09801 43.3476 4.96267 42.4728C5.86861 42.8462 6.69676 43.3195 7.6562 43.6511C14.2187 45.9191 22.0456 42.9341 25.9997 37.3856C26.4338 36.7764 26.8295 36.02 27.1791 35.3459C27.9902 33.5688 28.5365 31.1856 28.1171 29.3125C25.9615 19.7046 14.7328 21.9815 10.4504 28.4499C8.65443 31.1629 8.0721 33.1607 8.6763 36.4775C7.19744 35.2036 6.10379 33.8487 5.90382 31.8516C5.22181 25.0404 12.1218 19.7691 18.259 18.9812C22.0023 18.5007 25.1122 19.3738 27.9821 21.5699Z" fill="#FEFEFE"/>
<path d="M44.7541 37.0371C43.6615 37.0371 42.671 36.7968 41.7823 36.316C40.9083 35.8353 40.209 35.1652 39.6846 34.3057C39.1747 33.4462 38.9198 32.4629 38.9198 31.3558C38.9198 30.2341 39.1747 29.2508 39.6846 28.4059C40.209 27.5464 40.9156 26.8763 41.8042 26.3955C42.6928 25.9148 43.6761 25.6744 44.7541 25.6744C45.8467 25.6744 46.83 25.9148 47.704 26.3955C48.5927 26.8763 49.2919 27.5464 49.8018 28.4059C50.3262 29.2508 50.5884 30.2341 50.5884 31.3558C50.5884 32.4629 50.3262 33.4462 49.8018 34.3057C49.2919 35.1652 48.5927 35.8353 47.704 36.316C46.83 36.7968 45.8467 37.0371 44.7541 37.0371ZM44.7541 34.3931C45.2494 34.3931 45.701 34.2839 46.1089 34.0653C46.5168 33.8323 46.8373 33.4899 47.0703 33.0383C47.318 32.5867 47.4418 32.0259 47.4418 31.3558C47.4418 30.6857 47.318 30.1248 47.0703 29.6732C46.8227 29.2216 46.4949 28.8866 46.087 28.6681C45.6937 28.435 45.2567 28.3185 44.776 28.3185C44.2807 28.3185 43.8291 28.435 43.4212 28.6681C43.0133 28.8866 42.6855 29.2216 42.4379 29.6732C42.1902 30.1103 42.0664 30.6711 42.0664 31.3558C42.0664 32.0259 42.1829 32.5867 42.416 33.0383C42.6637 33.4899 42.9914 33.8323 43.3993 34.0653C43.8072 34.2839 44.2588 34.3931 44.7541 34.3931ZM55.4046 37.0371C54.6034 37.0371 53.9114 36.8914 53.3287 36.6001C52.746 36.3087 52.2944 35.9154 51.9739 35.4201C51.668 34.9248 51.515 34.3785 51.515 33.7813C51.515 32.6596 51.9156 31.7928 52.7169 31.181C53.5326 30.5546 54.5961 30.2414 55.9071 30.2414C56.5335 30.2414 57.0653 30.2851 57.5023 30.3725C57.9539 30.4599 58.3181 30.5473 58.5949 30.6347V30.1103C58.5949 29.3965 58.3836 28.8793 57.9612 28.5588C57.5533 28.2383 57.0288 28.0781 56.3879 28.0781C55.9508 28.0781 55.5575 28.1655 55.2079 28.3403C54.8583 28.5151 54.6325 28.8356 54.5305 29.3018H51.668C51.7554 28.5297 52.0103 27.8741 52.4328 27.3351C52.8698 26.7961 53.4307 26.3883 54.1153 26.1115C54.8 25.8201 55.5575 25.6744 56.3879 25.6744C58.0194 25.6744 59.3014 26.0605 60.2337 26.8326C61.1806 27.5901 61.654 28.6826 61.654 30.1103V32.3609C61.654 32.9145 61.6832 33.3297 61.7414 33.6065C61.8143 33.8687 61.9235 34.0362 62.0692 34.109C62.2149 34.1819 62.4043 34.2183 62.6373 34.2183H62.7247V36.7749H62.0474C61.2607 36.7749 60.6052 36.6802 60.0807 36.4908C59.5563 36.2869 59.1703 35.9009 58.9226 35.3327C58.5439 35.828 58.0559 36.2359 57.4586 36.5564C56.8613 36.8769 56.1766 37.0371 55.4046 37.0371ZM56.1257 34.7209C56.5481 34.7209 56.905 34.6335 57.1964 34.4587C57.5023 34.2693 57.7572 34.0144 57.9612 33.6939C58.1651 33.3588 58.3181 32.9873 58.42 32.5795C58.1287 32.492 57.7864 32.4119 57.393 32.3391C57.0143 32.2517 56.6282 32.208 56.2349 32.208C55.7833 32.208 55.3973 32.3245 55.0768 32.5576C54.7563 32.7761 54.5961 33.0966 54.5961 33.5191C54.5961 33.8687 54.7345 34.16 55.0112 34.3931C55.288 34.6116 55.6595 34.7209 56.1257 34.7209ZM68.3774 37.0371C66.9206 37.0371 65.7261 36.6948 64.7938 36.0101C63.8615 35.3254 63.337 34.4295 63.2205 33.3224H66.3452C66.4472 33.7449 66.6949 34.0872 67.0882 34.3494C67.4815 34.5971 67.9477 34.7209 68.4867 34.7209C69.0839 34.7209 69.5355 34.6189 69.8414 34.415C70.1619 34.1965 70.3222 33.9342 70.3222 33.6283C70.3222 33.3807 70.2056 33.184 69.9725 33.0383C69.7395 32.8781 69.3389 32.7688 68.7707 32.7106C68.5668 32.6814 68.2827 32.6377 67.9185 32.5795C67.5689 32.5212 67.2848 32.4702 67.0663 32.4265C66.4545 32.31 65.8936 32.1206 65.3838 31.8584C64.8885 31.5816 64.4952 31.2247 64.2038 30.7876C63.9125 30.3361 63.7668 29.7898 63.7668 29.1488C63.7668 28.1728 64.131 27.3497 64.8593 26.6796C65.5877 26.0095 66.6584 25.6744 68.0715 25.6744C69.4991 25.6744 70.6208 25.9876 71.4366 26.6141C72.2669 27.2405 72.7331 28.1072 72.8351 29.2144H69.8851C69.8414 28.821 69.6448 28.5224 69.2952 28.3185C68.9455 28.1145 68.5449 28.0125 68.0933 28.0125C67.5398 28.0125 67.1246 28.1072 66.8478 28.2966C66.571 28.486 66.4326 28.7191 66.4326 28.9958C66.4326 29.4474 66.8842 29.7534 67.7874 29.9136C67.9185 29.9282 68.1006 29.9573 68.3337 30.001C68.5813 30.0301 68.829 30.0666 69.0766 30.1103C69.3389 30.1394 69.5428 30.1685 69.6885 30.1977C70.1255 30.2559 70.548 30.3579 70.9559 30.5036C71.3783 30.6347 71.7498 30.8168 72.0703 31.0499C72.4053 31.2829 72.6675 31.5889 72.8569 31.9676C73.0463 32.3464 73.141 32.8125 73.141 33.3661C73.141 34.0945 72.9589 34.7354 72.5947 35.289C72.2305 35.8426 71.6915 36.2723 70.9777 36.5782C70.2785 36.8842 69.4117 37.0371 68.3774 37.0371ZM74.5639 36.7749V25.9367H77.6231V36.7749H74.5639ZM74.695 24.2104V21.3697H77.5357V24.2104H74.695ZM83.8269 37.0371C82.3702 37.0371 81.1757 36.6948 80.2433 36.0101C79.311 35.3254 78.7866 34.4295 78.67 33.3224H81.7948C81.8967 33.7449 82.1444 34.0872 82.5377 34.3494C82.931 34.5971 83.3972 34.7209 83.9362 34.7209C84.5335 34.7209 84.9851 34.6189 85.291 34.415C85.6115 34.1965 85.7717 33.9342 85.7717 33.6283C85.7717 33.3807 85.6552 33.184 85.4221 33.0383C85.189 32.8781 84.7884 32.7688 84.2203 32.7106C84.0163 32.6814 83.7323 32.6377 83.3681 32.5795C83.0184 32.5212 82.7344 32.4702 82.5159 32.4265C81.904 32.31 81.3432 32.1206 80.8333 31.8584C80.338 31.5816 79.9447 31.2247 79.6533 30.7876C79.362 30.3361 79.2163 29.7898 79.2163 29.1488C79.2163 28.1728 79.5805 27.3497 80.3089 26.6796C81.0373 26.0095 82.108 25.6744 83.521 25.6744C84.9486 25.6744 86.0703 25.9876 86.8861 26.6141C87.7165 27.2405 88.1826 28.1072 88.2846 29.2144H85.3347C85.291 28.821 85.0943 28.5224 84.7447 28.3185C84.3951 28.1145 83.9945 28.0125 83.5429 28.0125C82.9893 28.0125 82.5741 28.1072 82.2974 28.2966C82.0206 28.486 81.8822 28.7191 81.8822 28.9958C81.8822 29.4474 82.3338 29.7534 83.237 29.9136C83.3681 29.9282 83.5502 29.9573 83.7832 30.001C84.0309 30.0301 84.2785 30.0666 84.5262 30.1103C84.7884 30.1394 84.9923 30.1685 85.138 30.1977C85.575 30.2559 85.9975 30.3579 86.4054 30.5036C86.8279 30.6347 87.1993 30.8168 87.5198 31.0499C87.8549 31.2829 88.1171 31.5889 88.3065 31.9676C88.4958 32.3464 88.5905 32.8125 88.5905 33.3661C88.5905 34.0945 88.4084 34.7354 88.0442 35.289C87.6801 35.8426 87.1411 36.2723 86.4272 36.5782C85.728 36.8842 84.8612 37.0371 83.8269 37.0371ZM96.7139 36.7749V25.9367H99.7731V27.5318C100.123 26.9637 100.596 26.5121 101.193 26.177C101.805 25.842 102.519 25.6744 103.335 25.6744C104.704 25.6744 105.753 26.1115 106.481 26.9855C107.21 27.845 107.574 29.0905 107.574 30.7221V36.7749H104.515V31.0062C104.515 30.1175 104.333 29.4402 103.969 28.974C103.619 28.4933 103.058 28.2529 102.286 28.2529C101.558 28.2529 100.953 28.5151 100.472 29.0395C100.006 29.5494 99.7731 30.2632 99.7731 31.181V36.7749H96.7139ZM114.53 37.0371C113.408 37.0371 112.418 36.804 111.558 36.3379C110.699 35.8571 110.029 35.2016 109.548 34.3713C109.067 33.5263 108.827 32.5576 108.827 31.465C108.827 30.3433 109.06 29.3455 109.526 28.4714C110.007 27.5974 110.677 26.9127 111.536 26.4174C112.396 25.9221 113.394 25.6744 114.53 25.6744C115.608 25.6744 116.562 25.9075 117.393 26.3737C118.223 26.8398 118.871 27.4808 119.337 28.2966C119.804 29.0978 120.037 30.0156 120.037 31.0499C120.037 31.1955 120.037 31.3631 120.037 31.5524C120.037 31.7273 120.022 31.9093 119.993 32.0987H111.012V30.2632H116.934C116.89 29.6222 116.642 29.1124 116.191 28.7336C115.754 28.3403 115.207 28.1436 114.552 28.1436C114.057 28.1436 113.598 28.2529 113.175 28.4714C112.767 28.6899 112.44 29.025 112.192 29.4766C111.959 29.9136 111.842 30.4744 111.842 31.1591V31.7928C111.842 32.3464 111.952 32.8344 112.17 33.2568C112.403 33.6647 112.716 33.9852 113.11 34.2183C113.518 34.4368 113.984 34.5461 114.508 34.5461C115.018 34.5461 115.448 34.4368 115.797 34.2183C116.147 33.9852 116.417 33.6866 116.606 33.3224H119.731C119.527 34.0216 119.177 34.6553 118.682 35.2235C118.201 35.777 117.604 36.2213 116.89 36.5564C116.191 36.8769 115.404 37.0371 114.53 37.0371ZM125.673 36.7749C124.915 36.7749 124.274 36.6875 123.75 36.5127C123.24 36.3379 122.854 36.0028 122.591 35.5075C122.329 34.9977 122.198 34.2693 122.198 33.3224V28.4933H120.341V25.9367H122.198V22.9649H125.257V25.9367H127.923V28.4933H125.257V32.9509C125.257 33.286 125.294 33.5409 125.367 33.7157C125.439 33.8905 125.571 34.0144 125.76 34.0872C125.964 34.1455 126.233 34.1746 126.568 34.1746H127.858V36.7749H125.673ZM131.451 36.7749L128.261 25.9367H131.277L133.418 35.0487L132.675 35.0268L135.144 25.9367H138.531L141.022 35.0268L140.258 35.0487L142.399 25.9367H145.436L142.246 36.7749H139.078L136.412 27.4225H137.264L134.62 36.7749H131.451ZM151.066 37.0371C149.973 37.0371 148.983 36.7968 148.094 36.316C147.22 35.8353 146.521 35.1652 145.996 34.3057C145.486 33.4462 145.231 32.4629 145.231 31.3558C145.231 30.2341 145.486 29.2508 145.996 28.4059C146.521 27.5464 147.227 26.8763 148.116 26.3955C149.004 25.9148 149.988 25.6744 151.066 25.6744C152.158 25.6744 153.142 25.9148 154.016 26.3955C154.904 26.8763 155.604 27.5464 156.113 28.4059C156.638 29.2508 156.9 30.2341 156.9 31.3558C156.9 32.4629 156.638 33.4462 156.113 34.3057C155.604 35.1652 154.904 35.8353 154.016 36.316C153.142 36.7968 152.158 37.0371 151.066 37.0371ZM151.066 34.3931C151.561 34.3931 152.013 34.2839 152.421 34.0653C152.828 33.8323 153.149 33.4899 153.382 33.0383C153.63 32.5867 153.753 32.0259 153.753 31.3558C153.753 30.6857 153.63 30.1248 153.382 29.6732C153.134 29.2216 152.807 28.8866 152.399 28.6681C152.005 28.435 151.568 28.3185 151.088 28.3185C150.592 28.3185 150.141 28.435 149.733 28.6681C149.325 28.8866 148.997 29.2216 148.75 29.6732C148.502 30.1103 148.378 30.6711 148.378 31.3558C148.378 32.0259 148.495 32.5867 148.728 33.0383C148.975 33.4899 149.303 33.8323 149.711 34.0653C150.119 34.2839 150.57 34.3931 151.066 34.3931ZM158.149 36.7749V25.9367H161.209V27.5755C161.5 27.0365 161.864 26.6141 162.301 26.3081C162.738 25.9876 163.233 25.8274 163.787 25.8274H165.12V28.537H163.481C162.942 28.537 162.505 28.6754 162.17 28.9521C161.835 29.2289 161.587 29.6441 161.427 30.1977C161.281 30.7367 161.209 31.3995 161.209 32.1861V36.7749H158.149ZM169.378 33.825L167.892 32.0769L173.224 25.9367H176.785L169.378 33.825ZM166.472 36.7749V21.042H169.531V36.7749H166.472ZM173.835 36.7749L169.749 31.465L171.585 29.6514L177.572 36.7749H173.835Z" fill="white"/>
</g>
<defs>
<clipPath id="clip0_262_7">
<rect width="180" height="62.2762" fill="white"/>
</clipPath>
</defs>
</svg>
