<svg width="180" height="63" viewBox="0 0 180 63" fill="none" xmlns="http://www.w3.org/2000/svg">
<g clip-path="url(#clip0_262_7)">
<path d="M26.1707 20.487C26.3167 20.5774 26.7153 20.9511 26.864 21.0842L26.797 21.155L26.8129 21.1461C23.3529 19.5218 20.5962 19.1577 16.8067 19.8961C9.90837 21.2401 3.055 27.4518 4.46323 35.0261C5.27713 39.4042 9.50117 41.8961 13.7802 40.9469C19.6933 39.6352 25.0587 33.7776 23.7918 27.4508C26.5623 29.6205 27.0627 31.9821 26.3321 35.3385C25.8928 36.8372 25.3858 37.803 24.4268 39.0348C21.8802 42.3488 18.1053 44.4967 13.9552 44.993C6.95882 45.8612 1.04929 41.3096 0.280281 34.2779C-0.641867 25.8466 6.00263 18.1249 14.2951 17.1422C18.5427 16.6089 22.8257 17.8153 26.1707 20.487Z" fill="#FEFEFE"/>
<path d="M27.9821 23.8286C30.2618 25.6239 31.7642 28.7187 32.0942 31.512C33.6013 44.2672 19.5344 53.3197 8.39429 47.12C7.10628 46.4032 6.09801 45.6064 4.96267 44.7316C5.86861 45.105 6.69676 45.5783 7.6562 45.9099C14.2187 48.1779 22.0456 45.1929 25.9997 39.6444C26.4338 39.0352 26.8295 38.2788 27.1791 37.6047C27.9902 35.8276 28.5365 33.4444 28.1171 31.5713C25.9615 21.9634 14.7328 24.2402 10.4504 30.7087C8.65443 33.4217 8.0721 35.4195 8.6763 38.7363C7.19744 37.4624 6.10379 36.1075 5.90382 34.1104C5.22181 27.2992 12.1218 22.0279 18.259 21.24C22.0023 20.7595 25.1122 21.6326 27.9821 23.8286Z" fill="#FEFEFE"/>
<path d="M44.7541 38.9004C43.6615 38.9004 42.671 38.66 41.7823 38.1793C40.9083 37.6986 40.209 37.0285 39.6846 36.169C39.1747 35.3095 38.9198 34.3262 38.9198 33.2191C38.9198 32.0974 39.1747 31.1141 39.6846 30.2691C40.209 29.4097 40.9156 28.7395 41.8042 28.2588C42.6928 27.7781 43.6761 27.5377 44.7541 27.5377C45.8467 27.5377 46.83 27.7781 47.704 28.2588C48.5927 28.7395 49.2919 29.4097 49.8018 30.2691C50.3262 31.1141 50.5884 32.0974 50.5884 33.2191C50.5884 34.3262 50.3262 35.3095 49.8018 36.169C49.2919 37.0285 48.5927 37.6986 47.704 38.1793C46.83 38.66 45.8467 38.9004 44.7541 38.9004ZM44.7541 36.2564C45.2494 36.2564 45.701 36.1471 46.1089 35.9286C46.5168 35.6955 46.8373 35.3532 47.0703 34.9016C47.318 34.45 47.4418 33.8892 47.4418 33.2191C47.4418 32.549 47.318 31.9881 47.0703 31.5365C46.8227 31.0849 46.4949 30.7499 46.087 30.5314C45.6937 30.2983 45.2567 30.1817 44.776 30.1817C44.2807 30.1817 43.8291 30.2983 43.4212 30.5314C43.0133 30.7499 42.6855 31.0849 42.4379 31.5365C42.1902 31.9735 42.0664 32.5344 42.0664 33.2191C42.0664 33.8892 42.1829 34.45 42.416 34.9016C42.6637 35.3532 42.9914 35.6955 43.3993 35.9286C43.8072 36.1471 44.2588 36.2564 44.7541 36.2564ZM55.4046 38.9004C54.6034 38.9004 53.9114 38.7547 53.3287 38.4634C52.746 38.172 52.2944 37.7787 51.9739 37.2834C51.668 36.7881 51.515 36.2418 51.515 35.6446C51.515 34.5229 51.9156 33.6561 52.7169 33.0443C53.5326 32.4178 54.5961 32.1046 55.9071 32.1046C56.5335 32.1046 57.0653 32.1484 57.5023 32.2358C57.9539 32.3232 58.3181 32.4106 58.5949 32.498V31.9735C58.5949 31.2597 58.3836 30.7426 57.9612 30.4221C57.5533 30.1016 57.0288 29.9414 56.3879 29.9414C55.9508 29.9414 55.5575 30.0288 55.2079 30.2036C54.8583 30.3784 54.6325 30.6989 54.5305 31.165H51.668C51.7554 30.393 52.0103 29.7374 52.4328 29.1984C52.8698 28.6594 53.4307 28.2515 54.1153 27.9748C54.8 27.6834 55.5575 27.5377 56.3879 27.5377C58.0194 27.5377 59.3014 27.9238 60.2337 28.6958C61.1806 29.4534 61.654 30.5459 61.654 31.9735V34.2242C61.654 34.7778 61.6832 35.193 61.7414 35.4697C61.8143 35.732 61.9235 35.8995 62.0692 35.9723C62.2149 36.0452 62.4043 36.0816 62.6373 36.0816H62.7247V38.6382H62.0474C61.2607 38.6382 60.6052 38.5435 60.0807 38.3541C59.5563 38.1502 59.1703 37.7641 58.9226 37.196C58.5439 37.6913 58.0559 38.0992 57.4586 38.4197C56.8613 38.7402 56.1766 38.9004 55.4046 38.9004ZM56.1257 36.5842C56.5481 36.5842 56.905 36.4968 57.1964 36.3219C57.5023 36.1326 57.7572 35.8776 57.9612 35.5572C58.1651 35.2221 58.3181 34.8506 58.42 34.4427C58.1287 34.3553 57.7864 34.2752 57.393 34.2024C57.0143 34.115 56.6282 34.0713 56.2349 34.0713C55.7833 34.0713 55.3973 34.1878 55.0768 34.4209C54.7563 34.6394 54.5961 34.9599 54.5961 35.3823C54.5961 35.732 54.7345 36.0233 55.0112 36.2564C55.288 36.4749 55.6595 36.5842 56.1257 36.5842ZM68.3774 38.9004C66.9206 38.9004 65.7261 38.5581 64.7938 37.8734C63.8615 37.1887 63.337 36.2928 63.2205 35.1857H66.3452C66.4472 35.6081 66.6949 35.9505 67.0882 36.2127C67.4815 36.4603 67.9477 36.5842 68.4867 36.5842C69.0839 36.5842 69.5355 36.4822 69.8414 36.2782C70.1619 36.0597 70.3222 35.7975 70.3222 35.4916C70.3222 35.2439 70.2056 35.0473 69.9725 34.9016C69.7395 34.7414 69.3389 34.6321 68.7707 34.5738C68.5668 34.5447 68.2827 34.501 67.9185 34.4427C67.5689 34.3845 67.2848 34.3335 67.0663 34.2898C66.4545 34.1732 65.8936 33.9839 65.3838 33.7216C64.8885 33.4449 64.4952 33.088 64.2038 32.6509C63.9125 32.1993 63.7668 31.6531 63.7668 31.0121C63.7668 30.0361 64.131 29.213 64.8593 28.5429C65.5877 27.8728 66.6584 27.5377 68.0715 27.5377C69.4991 27.5377 70.6208 27.8509 71.4366 28.4773C72.2669 29.1037 72.7331 29.9705 72.8351 31.0776H69.8851C69.8414 30.6843 69.6448 30.3857 69.2952 30.1817C68.9455 29.9778 68.5449 29.8758 68.0933 29.8758C67.5398 29.8758 67.1246 29.9705 66.8478 30.1599C66.571 30.3493 66.4326 30.5823 66.4326 30.8591C66.4326 31.3107 66.8842 31.6166 67.7874 31.7769C67.9185 31.7914 68.1006 31.8206 68.3337 31.8643C68.5813 31.8934 68.829 31.9298 69.0766 31.9735C69.3389 32.0027 69.5428 32.0318 69.6885 32.0609C70.1255 32.1192 70.548 32.2212 70.9559 32.3669C71.3783 32.498 71.7498 32.6801 72.0703 32.9131C72.4053 33.1462 72.6675 33.4521 72.8569 33.8309C73.0463 34.2097 73.141 34.6758 73.141 35.2294C73.141 35.9578 72.9589 36.5987 72.5947 37.1523C72.2305 37.7059 71.6915 38.1356 70.9777 38.4415C70.2785 38.7474 69.4117 38.9004 68.3774 38.9004ZM74.5639 38.6382V27.7999H77.6231V38.6382H74.5639ZM74.695 26.0737V23.233H77.5357V26.0737H74.695ZM83.8269 38.9004C82.3702 38.9004 81.1757 38.5581 80.2433 37.8734C79.311 37.1887 78.7866 36.2928 78.67 35.1857H81.7948C81.8967 35.6081 82.1444 35.9505 82.5377 36.2127C82.931 36.4603 83.3972 36.5842 83.9362 36.5842C84.5335 36.5842 84.9851 36.4822 85.291 36.2782C85.6115 36.0597 85.7717 35.7975 85.7717 35.4916C85.7717 35.2439 85.6552 35.0473 85.4221 34.9016C85.189 34.7414 84.7884 34.6321 84.2203 34.5738C84.0163 34.5447 83.7323 34.501 83.3681 34.4427C83.0184 34.3845 82.7344 34.3335 82.5159 34.2898C81.904 34.1732 81.3432 33.9839 80.8333 33.7216C80.338 33.4449 79.9447 33.088 79.6533 32.6509C79.362 32.1993 79.2163 31.6531 79.2163 31.0121C79.2163 30.0361 79.5805 29.213 80.3089 28.5429C81.0373 27.8728 82.108 27.5377 83.521 27.5377C84.9486 27.5377 86.0703 27.8509 86.8861 28.4773C87.7165 29.1037 88.1826 29.9705 88.2846 31.0776H85.3347C85.291 30.6843 85.0943 30.3857 84.7447 30.1817C84.3951 29.9778 83.9945 29.8758 83.5429 29.8758C82.9893 29.8758 82.5741 29.9705 82.2974 30.1599C82.0206 30.3493 81.8822 30.5823 81.8822 30.8591C81.8822 31.3107 82.3338 31.6166 83.237 31.7769C83.3681 31.7914 83.5502 31.8206 83.7832 31.8643C84.0309 31.8934 84.2785 31.9298 84.5262 31.9735C84.7884 32.0027 84.9923 32.0318 85.138 32.0609C85.575 32.1192 85.9975 32.2212 86.4054 32.3669C86.8279 32.498 87.1993 32.6801 87.5198 32.9131C87.8549 33.1462 88.1171 33.4521 88.3065 33.8309C88.4958 34.2097 88.5905 34.6758 88.5905 35.2294C88.5905 35.9578 88.4084 36.5987 88.0442 37.1523C87.6801 37.7059 87.1411 38.1356 86.4272 38.4415C85.728 38.7474 84.8612 38.9004 83.8269 38.9004ZM96.7139 38.6382V27.7999H99.7731V29.3951C100.123 28.827 100.596 28.3754 101.193 28.0403C101.805 27.7053 102.519 27.5377 103.335 27.5377C104.704 27.5377 105.753 27.9748 106.481 28.8488C107.21 29.7083 107.574 30.9538 107.574 32.5854V38.6382H104.515V32.8694C104.515 31.9808 104.333 31.3034 103.969 30.8373C103.619 30.3565 103.058 30.1162 102.286 30.1162C101.558 30.1162 100.953 30.3784 100.472 30.9028C100.006 31.4127 99.7731 32.1265 99.7731 33.0443V38.6382H96.7139ZM114.53 38.9004C113.408 38.9004 112.418 38.6673 111.558 38.2012C110.699 37.7204 110.029 37.0649 109.548 36.2345C109.067 35.3896 108.827 34.4209 108.827 33.3283C108.827 32.2066 109.06 31.2087 109.526 30.3347C110.007 29.4606 110.677 28.776 111.536 28.2807C112.396 27.7854 113.394 27.5377 114.53 27.5377C115.608 27.5377 116.562 27.7708 117.393 28.237C118.223 28.7031 118.871 29.3441 119.337 30.1599C119.804 30.9611 120.037 31.8789 120.037 32.9131C120.037 33.0588 120.037 33.2263 120.037 33.4157C120.037 33.5905 120.022 33.7726 119.993 33.962H111.012V32.1265H116.934C116.89 31.4855 116.642 30.9757 116.191 30.5969C115.754 30.2036 115.207 30.0069 114.552 30.0069C114.057 30.0069 113.598 30.1162 113.175 30.3347C112.767 30.5532 112.44 30.8883 112.192 31.3399C111.959 31.7769 111.842 32.3377 111.842 33.0224V33.6561C111.842 34.2097 111.952 34.6977 112.17 35.1201C112.403 35.528 112.716 35.8485 113.11 36.0816C113.518 36.3001 113.984 36.4094 114.508 36.4094C115.018 36.4094 115.448 36.3001 115.797 36.0816C116.147 35.8485 116.417 35.5499 116.606 35.1857H119.731C119.527 35.8849 119.177 36.5186 118.682 37.0867C118.201 37.6403 117.604 38.0846 116.89 38.4197C116.191 38.7402 115.404 38.9004 114.53 38.9004ZM125.673 38.6382C124.915 38.6382 124.274 38.5508 123.75 38.376C123.24 38.2012 122.854 37.8661 122.591 37.3708C122.329 36.8609 122.198 36.1326 122.198 35.1857V30.3565H120.341V27.7999H122.198V24.8282H125.257V27.7999H127.923V30.3565H125.257V34.8142C125.257 35.1493 125.294 35.4042 125.367 35.579C125.439 35.7538 125.571 35.8776 125.76 35.9505C125.964 36.0087 126.233 36.0379 126.568 36.0379H127.858V38.6382H125.673ZM131.451 38.6382L128.261 27.7999H131.277L133.418 36.9119L132.675 36.8901L135.144 27.7999H138.531L141.022 36.8901L140.258 36.9119L142.399 27.7999H145.436L142.246 38.6382H139.078L136.412 29.2858H137.264L134.62 38.6382H131.451ZM151.066 38.9004C149.973 38.9004 148.983 38.66 148.094 38.1793C147.22 37.6986 146.521 37.0285 145.996 36.169C145.486 35.3095 145.231 34.3262 145.231 33.2191C145.231 32.0974 145.486 31.1141 145.996 30.2691C146.521 29.4097 147.227 28.7395 148.116 28.2588C149.004 27.7781 149.988 27.5377 151.066 27.5377C152.158 27.5377 153.142 27.7781 154.016 28.2588C154.904 28.7395 155.604 29.4097 156.113 30.2691C156.638 31.1141 156.9 32.0974 156.9 33.2191C156.9 34.3262 156.638 35.3095 156.113 36.169C155.604 37.0285 154.904 37.6986 154.016 38.1793C153.142 38.66 152.158 38.9004 151.066 38.9004ZM151.066 36.2564C151.561 36.2564 152.013 36.1471 152.421 35.9286C152.828 35.6955 153.149 35.3532 153.382 34.9016C153.63 34.45 153.753 33.8892 153.753 33.2191C153.753 32.549 153.63 31.9881 153.382 31.5365C153.134 31.0849 152.807 30.7499 152.399 30.5314C152.005 30.2983 151.568 30.1817 151.088 30.1817C150.592 30.1817 150.141 30.2983 149.733 30.5314C149.325 30.7499 148.997 31.0849 148.75 31.5365C148.502 31.9735 148.378 32.5344 148.378 33.2191C148.378 33.8892 148.495 34.45 148.728 34.9016C148.975 35.3532 149.303 35.6955 149.711 35.9286C150.119 36.1471 150.57 36.2564 151.066 36.2564ZM158.149 38.6382V27.7999H161.209V29.4388C161.5 28.8998 161.864 28.4773 162.301 28.1714C162.738 27.8509 163.233 27.6907 163.787 27.6907H165.12V30.4002H163.481C162.942 30.4002 162.505 30.5386 162.17 30.8154C161.835 31.0922 161.587 31.5074 161.427 32.0609C161.281 32.5999 161.209 33.2628 161.209 34.0494V38.6382H158.149ZM169.378 35.6883L167.892 33.9402L173.224 27.7999H176.785L169.378 35.6883ZM166.472 38.6382V22.9053H169.531V38.6382H166.472ZM173.835 38.6382L169.749 33.3283L171.585 31.5147L177.572 38.6382H173.835Z" fill="white"/>
</g>
<defs>
<clipPath id="clip0_262_7">
<rect width="180" height="62.2762" fill="white"/>
</clipPath>
</defs>
</svg>
