<svg width="32" height="32" viewBox="0 0 32 32" fill="none" xmlns="http://www.w3.org/2000/svg">
<g clip-path="url(#clip0_119_318)">
<path d="M6.57463 6.57341L25.428 25.4267M2.66797 11.3637V20.6365C2.66797 20.9625 2.66797 21.1255 2.70481 21.279C2.73748 21.4151 2.79134 21.5451 2.86445 21.6645C2.9469 21.799 3.06221 21.9143 3.29281 22.1449L9.85646 28.7086C10.0871 28.9391 10.2024 29.0545 10.3369 29.1369C10.4562 29.2101 10.5863 29.2639 10.7223 29.2966C10.8758 29.3334 11.0388 29.3334 11.365 29.3334H20.6377C20.9637 29.3334 21.1268 29.3334 21.2802 29.2966C21.4164 29.2639 21.5464 29.2101 21.6657 29.1369C21.8002 29.0545 21.9156 28.9391 22.1461 28.7086L28.7098 22.1449C28.9404 21.9143 29.0557 21.799 29.1381 21.6645C29.2113 21.5451 29.2652 21.4151 29.2978 21.279C29.3346 21.1255 29.3346 20.9625 29.3346 20.6365V11.3637C29.3346 11.0376 29.3346 10.8746 29.2978 10.7211C29.2652 10.5851 29.2113 10.455 29.1381 10.3357C29.0557 10.2011 28.9404 10.0858 28.7098 9.85524L22.1461 3.29159C21.9156 3.06099 21.8002 2.94568 21.6657 2.86323C21.5464 2.79012 21.4164 2.73625 21.2802 2.70359C21.1268 2.66675 20.9637 2.66675 20.6377 2.66675H11.365C11.0388 2.66675 10.8758 2.66675 10.7223 2.70359C10.5863 2.73625 10.4562 2.79012 10.3369 2.86323C10.2024 2.94568 10.0871 3.06099 9.85646 3.29159L3.29281 9.85524C3.06221 10.0858 2.9469 10.2011 2.86445 10.3357C2.79134 10.455 2.73748 10.5851 2.70481 10.7211C2.66797 10.8746 2.66797 11.0376 2.66797 11.3637Z" stroke="#37D49C" stroke-width="2" stroke-linecap="round" stroke-linejoin="round"/>
</g>
<defs>
<clipPath id="clip0_119_318">
<rect width="32" height="32" fill="white"/>
</clipPath>
</defs>
</svg>
