<svg width="64" height="64" viewBox="0 0 64 64" fill="none" xmlns="http://www.w3.org/2000/svg">
<path d="M28.9151 5.36143C29.1928 5.29607 30.0999 5.2669 30.431 5.24854L30.4353 5.4104L30.4436 5.38123C24.4716 7.53753 20.8059 10.3478 17.2221 15.6661C10.6981 25.3476 9.94439 40.6938 20.4951 47.9363C26.5937 52.1229 34.4822 50.0883 38.3933 43.9473C43.7981 35.4611 43.22 22.2787 34.3005 16.3352C40.1032 15.6296 43.4648 17.8157 46.5491 22.6163C47.7935 24.8927 48.3324 26.6226 48.6529 29.1959C49.5542 36.0798 47.6431 43.0366 43.3514 48.4941C36.1532 57.7318 23.8657 59.3269 14.703 51.9707C3.71655 43.1506 2.45132 26.2762 11.0373 15.3816C15.4002 9.76602 21.8479 6.15221 28.9151 5.36143Z" fill="#030408"/>
<path d="M34.9707 7.16049C39.757 6.59153 45.1568 8.4619 48.8256 11.3553C65.5779 24.5673 59.688 51.7232 39.3207 57.526C36.966 58.1971 34.8457 58.4454 32.4847 58.7514C33.9874 58.1259 35.516 57.7091 37.0324 56.9716C47.4047 51.9273 53.0919 39.2278 51.2192 28.0661C51.0136 26.8406 50.5899 25.4874 50.2087 24.285C49.074 21.2448 46.9165 17.8039 44.2236 16.0964C30.4063 7.34307 19.8915 23.2065 22.4592 35.8344C23.5363 41.1306 25.199 44.1612 29.8046 47.3474C26.5712 47.5881 23.6952 47.2813 21.1145 45.1704C12.313 37.971 14.226 23.6748 20.5093 15.5406C24.3417 10.5793 29.0203 7.952 34.9707 7.16049Z" fill="#030408"/>
</svg>
