<svg width="32" height="32" viewBox="0 0 32 32" fill="none" xmlns="http://www.w3.org/2000/svg">
<g clip-path="url(#clip0_119_325)">
<path d="M18.6654 3.02612V8.53351C18.6654 9.28024 18.6654 9.65361 18.8107 9.93883C18.9386 10.1897 19.1424 10.3937 19.3934 10.5215C19.6786 10.6668 20.0519 10.6668 20.7987 10.6668H26.306M21.332 17.3334H10.6654M21.332 22.6667H10.6654M13.332 12.0001H10.6654M18.6654 2.66675H11.732C9.49182 2.66675 8.37171 2.66675 7.51607 3.10272C6.76342 3.48621 6.1515 4.09813 5.768 4.85079C5.33203 5.70643 5.33203 6.82653 5.33203 9.06675V22.9334C5.33203 25.1737 5.33203 26.2937 5.768 27.1494C6.1515 27.9021 6.76342 28.5139 7.51607 28.8974C8.37171 29.3334 9.49182 29.3334 11.732 29.3334H20.2654C22.5056 29.3334 23.6256 29.3334 24.4814 28.8974C25.234 28.5139 25.8459 27.9021 26.2294 27.1494C26.6654 26.2937 26.6654 25.1737 26.6654 22.9334V10.6667L18.6654 2.66675Z" stroke="#37D49C" stroke-width="2" stroke-linecap="round" stroke-linejoin="round"/>
</g>
<defs>
<clipPath id="clip0_119_325">
<rect width="32" height="32" fill="white"/>
</clipPath>
</defs>
</svg>
